<?xml version="1.0" encoding="utf-8"?>
<!-- Generator: Adobe Illustrator 16.0.0, SVG Export Plug-In . SVG Version: 6.00 Build 0)  -->
<!DOCTYPE svg PUBLIC "-//W3C//DTD SVG 1.1//EN" "http://www.w3.org/Graphics/SVG/1.1/DTD/svg11.dtd">
<svg version="1.1" id="圖層_1" xmlns="http://www.w3.org/2000/svg" xmlns:xlink="http://www.w3.org/1999/xlink" x="0px" y="0px"
	 width="850.389px" height="191.848px" viewBox="0 329.599 850.389 191.848" enable-background="new 0 329.599 850.389 191.848"
	 xml:space="preserve">
<g id="XMLID_1778_">
	<g id="XMLID_1884_">
		<g id="XMLID_1890_">
			<g id="XMLID_2368_">
				<path id="XMLID_2463_" fill="#FFFFFF" d="M272.389,329.599h20.373c14.76,0,21.288,7.344,21.288,20.663
					c0,6.699-2.876,13.725-9.539,16.317c6.993,3.044,11.091,8.425,11.091,18.498c0,12.873-5.887,22.616-21.496,22.616h-21.716
					V329.599z M286.107,361.623h5.002c5.216,0,9.205-3.476,9.205-9.965c0-7.244-2.887-11.025-8.979-11.025h-5.228V361.623z
					 M286.107,396.658h5.786c7.304,0,9.985-4.101,9.985-12.004c0-8.005-3.143-12.02-11.328-12.02h-4.443V396.658z"/>
				<path id="XMLID_2459_" fill="#FFFFFF" d="M292.216,480.778h22.504v39.596h-6.632l-2.546-5.852
					c-4.126,4.73-7.427,6.925-13.858,6.925c-10.866,0-18.406-7.572-18.406-20.016V461.18c0-11.022,6.656-19.998,20.157-19.998
					c13.757,0,20.625,9.725,20.625,21.404v4.986H300.97c0-11.673-2.421-14.715-7.846-14.715c-3.33,0-6.125,1.954-6.125,8.557v40.113
					c0,4.995,1.676,8.239,6.435,8.239c5.549,0,7.536-3.03,7.536-10.819v-7.572h-8.754V480.778z"/>
			</g>
			<g id="XMLID_2359_">
				<path id="XMLID_2363_" fill="#FFFFFF" d="M381.417,407.694v-78.095H418.2v11.677h-23.056v20.129h17.727v11.666h-17.727V396
					h24.583v11.693H381.417z"/>
				<path id="XMLID_2360_" fill="#FFFFFF" d="M390.595,520.374h-13.288l14.739-78.117h17.063l14.751,78.117h-13.323l-2.434-17.305
					H393.03L390.595,520.374z M395.035,491.375h11.095l-5.441-33.522h-0.209L395.035,491.375z"/>
			</g>
			<g id="XMLID_1907_">
				<path id="XMLID_2356_" fill="#FFFFFF" d="M497.179,407.694h-13.298l14.738-78.095h17.063l14.729,78.095h-13.288l-2.426-17.313
					h-15.09L497.179,407.694z M501.619,378.696h11.092l-5.446-33.516h-0.212L501.619,378.696z"/>
				<path id="XMLID_1908_" fill="#FFFFFF" d="M498.607,520.374h-13.726v-78.117h19.281c15.401,0,23.256,6.391,23.256,23.052
					c0,12.554-4.972,17.621-9.637,19.689l11.651,35.376h-13.986l-9.728-32.352c-1.795,0.213-4.678,0.319-7.112,0.319V520.374z
					 M498.607,477.308h4.885c7.438,0,10.192-2.697,10.192-12c0-9.326-2.755-12.013-10.192-12.013h-4.885V477.308z"/>
			</g>
			<g id="XMLID_1901_">
				<path id="XMLID_1905_" fill="#FFFFFF" d="M592.666,329.599h13.771v58.951c0,5.723,2.298,8.537,7.3,8.537
					c4.981,0,7.314-2.814,7.314-8.537v-58.951h13.754v58.402c0,13.412-7.978,20.773-21.068,20.773
					c-13.063,0-21.071-7.361-21.071-20.773V329.599z"/>
				<path id="XMLID_1902_" fill="#FFFFFF" d="M603.772,520.374H590.47l14.717-78.117h17.084l14.729,78.117h-13.287l-2.434-17.305
					H606.2L603.772,520.374z M608.188,491.375h11.072l-5.421-33.522h-0.226L608.188,491.375z"/>
			</g>
			<g id="XMLID_1896_">
				<path id="XMLID_1899_" fill="#FFFFFF" d="M713.473,341.276h-13.315v-11.677h40.348v11.677h-13.311v66.418h-13.722V341.276z"/>
				<path id="XMLID_1897_" fill="#FFFFFF" d="M718.536,480.778h22.505v39.596h-6.644l-2.562-5.852
					c-4.11,4.73-7.425,6.925-13.859,6.925c-10.853,0-18.391-7.572-18.391-20.016V461.18c0-11.022,6.644-19.998,20.169-19.998
					c13.758,0,20.615,9.725,20.615,21.404v4.986h-13.08c0-11.673-2.433-14.715-7.877-14.715c-3.322,0-6.093,1.954-6.093,8.557
					v40.113c0,4.995,1.658,8.239,6.435,8.239c5.55,0,7.535-3.03,7.535-10.819v-7.572h-8.754V480.778z"/>
			</g>
			<g id="XMLID_1891_">
				<path id="XMLID_1894_" fill="#FFFFFF" d="M833.777,407.694h-13.753v-32.452l-16.63-45.643h13.982l9.63,29.741h0.229
					l9.188-29.741h13.965l-16.612,45.643V407.694z"/>
				<path id="XMLID_1892_" fill="#FFFFFF" d="M807.73,520.374v-78.117h36.78v11.708h-23.038v20.104h17.737v11.686h-17.737v22.93
					h24.6v11.689H807.73z"/>
			</g>
		</g>
		<path id="XMLID_1885_" fill="#FFFFFF" d="M0,385.547c0-30.007,24.224-54.417,54.601-55.821v-0.127H98.28v31.979H54.601v0.146
			c-12.293,1.334-21.836,11.49-21.836,23.822c0,12.344,9.542,22.498,21.836,23.832v0.141H98.28v31.975H54.601v0.164
			c-12.293,1.332-21.836,11.484-21.836,23.829c0,12.344,9.542,22.506,21.836,23.83v0.138H98.28v31.991H54.601v-0.137
			C24.224,519.899,0,495.498,0,465.488c0-15.671,6.593-29.807,17.23-39.974C6.594,415.364,0,401.216,0,385.547z M152.87,329.726
			v-0.127h-43.673v31.979h43.673v0.146c12.283,1.334,21.833,11.49,21.833,23.822h32.769
			C207.472,355.541,183.241,331.13,152.87,329.726z M109.197,409.52v31.975h65.506v23.993c0,12.344-9.551,22.506-21.833,23.83v0.138
			h-43.673v31.991h43.673v-0.137c30.371-1.411,54.602-25.813,54.602-55.822v-23.993V409.52H109.197z"/>
	</g>
</g>
</svg>
