<?xml version="1.0" encoding="utf-8"?>
<!-- Generator: Adobe Illustrator 23.0.0, SVG Export Plug-In . SVG Version: 6.00 Build 0)  -->
<svg version="1.1" id="圖層_1" xmlns="http://www.w3.org/2000/svg" xmlns:xlink="http://www.w3.org/1999/xlink" x="0px" y="0px"
	 viewBox="0 0 260 92" style="enable-background:new 0 0 260 92;" xml:space="preserve">
<style type="text/css">
	.st0{fill:#231815;}
	.st1{fill:#0D3061;}
</style>
<g id="XMLID_2_">
	<g id="XMLID_5605_">
		<g id="XMLID_5611_">
			<g id="XMLID_5641_">
				<path id="XMLID_5644_" class="st0" d="M83.3,0.9h6.2C94,0.9,96,3.2,96,7.4c0,2.1-0.9,4.3-2.9,5.1c2.1,1,3.4,2.6,3.4,5.8
					c0,4-1.8,7.1-6.6,7.1h-6.6V0.9z M87.5,10.9H89c1.6,0,2.8-1.1,2.8-3.1c0-2.3-0.9-3.5-2.7-3.5h-1.6V10.9z M87.5,21.9h1.8
					c2.2,0,3.1-1.3,3.1-3.8c0-2.5-1-3.8-3.5-3.8h-1.4V21.9z"/>
				<path id="XMLID_5642_" class="st0" d="M89.3,48.3h6.9v12.4h-2l-0.8-1.8c-1.3,1.5-2.3,2.2-4.2,2.2c-3.3,0-5.6-2.4-5.6-6.3V42.1
					c0-3.5,2-6.3,6.2-6.3c4.2,0,6.3,3,6.3,6.7v1.6h-4c0-3.7-0.7-4.6-2.4-4.6c-1,0-1.9,0.6-1.9,2.7v12.6c0,1.6,0.5,2.6,2,2.6
					c1.7,0,2.3-1,2.3-3.4v-2.4h-2.7V48.3z"/>
			</g>
			<g id="XMLID_5635_">
				<path id="XMLID_5639_" class="st0" d="M116.6,25.4V0.9h11.2v3.7h-7v6.3h5.4v3.7h-5.4v7.2h7.5v3.7H116.6z"/>
				<path id="XMLID_5636_" class="st0" d="M119.4,60.7h-4.1l4.5-24.5h5.2l4.5,24.5h-4.1l-0.7-5.4h-4.6L119.4,60.7z M120.8,51.6h3.4
					l-1.7-10.5h-0.1L120.8,51.6z"/>
			</g>
			<g id="XMLID_5628_">
				<path id="XMLID_5632_" class="st0" d="M152,25.4h-4.1l4.5-24.5h5.2l4.5,24.5h-4.1l-0.7-5.4h-4.6L152,25.4z M153.4,16.3h3.4
					l-1.7-10.5H155L153.4,16.3z"/>
				<path id="XMLID_5629_" class="st0" d="M152.4,60.7h-4.2V36.2h5.9c4.7,0,7.1,2,7.1,7.2c0,3.9-1.5,5.5-2.9,6.2l3.6,11.1h-4.3
					l-3-10.1c-0.5,0.1-1.4,0.1-2.2,0.1V60.7z M152.4,47.2h1.5c2.3,0,3.1-0.8,3.1-3.8c0-2.9-0.8-3.8-3.1-3.8h-1.5V47.2z"/>
			</g>
			<g id="XMLID_5622_">
				<path id="XMLID_5626_" class="st0" d="M181.2,0.9h4.2v18.5c0,1.8,0.7,2.7,2.2,2.7c1.5,0,2.2-0.9,2.2-2.7V0.9h4.2v18.3
					c0,4.2-2.4,6.5-6.4,6.5c-4,0-6.4-2.3-6.4-6.5V0.9z"/>
				<path id="XMLID_5623_" class="st0" d="M184.6,60.7h-4.1l4.5-24.5h5.2l4.5,24.5h-4.1l-0.7-5.4h-4.6L184.6,60.7z M185.9,51.6h3.4
					l-1.7-10.5h-0.1L185.9,51.6z"/>
			</g>
			<g id="XMLID_5617_">
				<path id="XMLID_5620_" class="st0" d="M218.1,4.6h-4.1V0.9h12.3v3.7h-4.1v20.8h-4.2V4.6z"/>
				<path id="XMLID_5618_" class="st0" d="M219.7,48.3h6.9v12.4h-2l-0.8-1.8c-1.3,1.5-2.3,2.2-4.2,2.2c-3.3,0-5.6-2.4-5.6-6.3V42.1
					c0-3.5,2-6.3,6.2-6.3c4.2,0,6.3,3,6.3,6.7v1.6h-4c0-3.7-0.7-4.6-2.4-4.6c-1,0-1.9,0.6-1.9,2.7v12.6c0,1.6,0.5,2.6,2,2.6
					c1.7,0,2.3-1,2.3-3.4v-2.4h-2.7V48.3z"/>
			</g>
			<g id="XMLID_5612_">
				<path id="XMLID_5615_" class="st0" d="M254.9,25.4h-4.2V15.2l-5.1-14.3h4.3l2.9,9.3h0.1l2.8-9.3h4.3l-5.1,14.3V25.4z"/>
				<path id="XMLID_5613_" class="st0" d="M247,60.7V36.2h11.2v3.7h-7v6.3h5.4v3.7h-5.4V57h7.5v3.7H247z"/>
			</g>
		</g>
		<path id="XMLID_5606_" class="st1" d="M0,18.4C0,9,7.4,1.4,16.7,1v0H30v10H16.7v0c-3.8,0.4-6.7,3.6-6.7,7.5c0,3.9,2.9,7,6.7,7.5v0
			H30v10H16.7V36c-3.8,0.4-6.7,3.6-6.7,7.5c0,3.9,2.9,7,6.7,7.5v0H30v10H16.7v0C7.4,60.5,0,52.9,0,43.5c0-4.9,2-9.3,5.3-12.5
			C2,27.8,0,23.3,0,18.4z M46.7,1L46.7,1l-13.4,0v10h13.4v0c3.8,0.4,6.7,3.6,6.7,7.5h10C63.4,9,56,1.4,46.7,1z M33.4,25.9v10h20v7.5
			c0,3.9-2.9,7-6.7,7.5v0H33.4v10h13.4v0c9.3-0.4,16.7-8.1,16.7-17.5V36v-10H33.4z"/>
	</g>
	<polygon id="XMLID_20_" class="st1" points="130,92 133.1,92 131.5,83.3 	"/>
	<polygon id="XMLID_21_" class="st1" points="130.5,77.8 127,77.8 128.6,88.9 	"/>
	<polygon id="XMLID_22_" class="st1" points="83,79.9 83,77.8 0,77.8 0,92 86,92 86,79.9 	"/>
	<polygon id="XMLID_23_" class="st1" points="136.1,77.8 132.6,77.8 134.7,89 	"/>
	<polygon id="XMLID_24_" class="st1" points="138.8,77.8 136.3,92 145,92 148.2,77.8 	"/>
	<polygon id="XMLID_25_" class="st1" points="101.5,86.5 103.7,86.5 102.6,80.5 	"/>
	<polygon id="XMLID_26_" class="st1" points="104.4,77.8 107.5,92 114.5,92 114.5,77.8 	"/>
	<polygon id="XMLID_27_" class="st1" points="101.1,88.6 100.4,92 104.7,92 104.1,88.6 	"/>
	<polygon id="XMLID_28_" class="st1" points="117.1,77.8 117.1,92 126.8,92 124.3,77.8 	"/>
	<polygon id="XMLID_29_" class="st1" points="91.6,77.8 91.6,79.9 88.6,79.9 88.6,92 97.7,92 100.9,77.8 	"/>
	<polygon id="XMLID_30_" class="st1" points="168,77.8 164.5,77.8 168,87 	"/>
	<polygon id="XMLID_31_" class="st1" points="151.7,77.8 154.8,92 161.8,92 161.8,77.8 	"/>
	<rect id="XMLID_32_" x="170.6" y="77.8" class="st1" width="89.4" height="14.2"/>
	<polygon id="XMLID_33_" class="st1" points="164.4,92 167.7,92 164.4,83.4 	"/>
	<polygon id="XMLID_34_" class="st1" points="148.8,86.5 151,86.5 150,80.5 	"/>
	<polygon id="XMLID_35_" class="st1" points="148.4,88.6 147.8,92 152,92 151.4,88.6 	"/>
</g>
</svg>
