<?xml version="1.0" encoding="utf-8"?>
<!-- Generator: Adobe Illustrator 23.0.0, SVG Export Plug-In . SVG Version: 6.00 Build 0)  -->
<svg version="1.1" id="圖層_1" xmlns="http://www.w3.org/2000/svg" xmlns:xlink="http://www.w3.org/1999/xlink" x="0px" y="0px"
	 viewBox="0 0 15 15" style="enable-background:new 0 0 15 15;" xml:space="preserve">
<style type="text/css">
	.st0{fill:#FFFFFF;}
</style>
<path class="st0" d="M12,10c0.5,0,1-0.2,1.3-0.5c0.3-0.3,0.5-0.8,0.5-1.3c0-0.5-0.2-0.9-0.4-1.2c-0.3-0.3-0.7-0.5-1.1-0.6
	C12,6.3,11.8,6,11.8,5.8v0c0-1.1-0.5-2.1-1.2-2.8C10,2.2,9,1.8,7.9,1.8C7.1,1.8,6.3,2,5.7,2.4C5,2.9,4.5,3.5,4.2,4.2
	C4.1,4.4,3.9,4.5,3.7,4.5C3,4.6,2.4,4.9,1.9,5.4C1.4,5.9,1.2,6.5,1.2,7.3c0,0.8,0.3,1.4,0.8,1.9h0c0.5,0.5,1,0.7,1.6,0.8
	c0.7,0.1,0.6,1.2-0.1,1.2C2.5,11,1.8,10.6,1.1,10h0C0.4,9.3,0,8.3,0,7.3c0-1,0.4-2,1.1-2.7c0.6-0.6,1.4-1,2.3-1.2
	c0.4-0.8,1-1.5,1.8-1.9c0.8-0.5,1.8-0.8,2.8-0.8c1.4,0,2.7,0.6,3.6,1.5C12.3,3,12.9,4.1,13,5.3c0.5,0.2,1,0.5,1.3,0.9
	C14.7,6.7,15,7.4,15,8.1c0,0.8-0.3,1.6-0.9,2.1h0c-0.5,0.5-1.1,0.8-1.8,0.9c0,0-0.1,0-0.1,0c-0.2,0-0.3,0-0.5,0
	c-0.3,0-0.6-0.3-0.6-0.6c0-0.3,0.3-0.6,0.6-0.6H12L12,10z M7.3,14.3L7.3,14.3L7.3,14.3L7.3,14.3L7.3,14.3L7.3,14.3
	C7.3,14.3,7.3,14.3,7.3,14.3L7.3,14.3L7.3,14.3l0.1,0.1c0,0,0,0,0,0h0l0,0h0h0h0h0h0h0h0l0,0h0c0,0,0,0,0,0l0,0l0,0c0,0,0,0,0,0l0,0
	l0,0v0l0,0l2.8-2.8c0.1-0.1,0.1-0.4,0-0.5c-0.1-0.1-0.4-0.1-0.5,0l-2.2,2.2V5.3c0-0.2-0.2-0.3-0.3-0.3S7.2,5.1,7.2,5.3v7.9L5,11
	c-0.1-0.1-0.4-0.1-0.5,0c-0.1,0.1-0.1,0.3,0,0.5L7.3,14.3L7.3,14.3L7.3,14.3z M7.5,14.4L7.5,14.4L7.5,14.4L7.5,14.4L7.5,14.4
	L7.5,14.4z"/>
</svg>
