<?xml version="1.0" encoding="utf-8"?>
<!-- Generator: Adobe Illustrator 22.1.0, SVG Export Plug-In . SVG Version: 6.00 Build 0)  -->
<svg version="1.1" id="圖層_1" xmlns="http://www.w3.org/2000/svg" xmlns:xlink="http://www.w3.org/1999/xlink" x="0px" y="0px"
	 viewBox="0 0 16 16" style="enable-background:new 0 0 16 16;" xml:space="preserve">
<style type="text/css">
	.st0{fill:#FFFFFF;}
</style>
<path class="st0" d="M12.5,8.8c0-0.3,0.3-0.6,0.6-0.6c0.3,0,0.6,0.3,0.6,0.6v6.1c0,0.3-0.3,0.6-0.6,0.6l0,0H2.8
	c-0.3,0-0.6-0.3-0.6-0.6l0,0V8.8c0-0.3,0.3-0.6,0.6-0.6s0.6,0.3,0.6,0.6v5.5h2V8c0-0.2,0.2-0.3,0.3-0.3l0,0H10
	c0.2,0,0.3,0.2,0.3,0.3l0,0v6.1h2V8.8H12.5z M6.3,14.1L6.3,14.1h3.5V8.5H6.3V14.1L6.3,14.1z M1,8.9L1,8.9c-0.2,0.2-0.6,0.2-0.9,0
	c-0.2-0.2-0.2-0.6,0-0.9l7.4-7.4c0.2-0.2,0.6-0.2,0.9,0l0,0L15.8,8c0.2,0.2,0.2,0.6,0,0.9c-0.2,0.2-0.6,0.2-0.9,0l-7-7L1,8.9L1,8.9z
	"/>
</svg>
