<?xml version="1.0" encoding="utf-8"?>
<!-- Generator: Adobe Illustrator 23.0.0, SVG Export Plug-In . SVG Version: 6.00 Build 0)  -->
<svg version="1.1" id="圖層_1" xmlns="http://www.w3.org/2000/svg" xmlns:xlink="http://www.w3.org/1999/xlink" x="0px" y="0px"
	 viewBox="0 0 16 16" style="enable-background:new 0 0 16 16;" xml:space="preserve">
<style type="text/css">
	.st0{fill:#FFFFFF;}
</style>
<path class="st0" d="M3.7,0.7l2.3,3l0,0C6.2,3.9,6.3,4,6.3,4.2c0,0.2,0.1,0.4,0,0.6c0,0.2-0.1,0.4-0.2,0.6l0,0
	C6,5.5,5.9,5.7,5.8,5.8l0,0L4.6,6.6c-0.1,0.2-0.2,0.5,0.2,1c0.5,0.7,1.1,1.4,1.7,2v0v0c0.6,0.6,1.3,1.2,2,1.7c0.4,0.3,0.8,0.2,1,0.2
	l0.8-1.2h0c0.1-0.2,0.3-0.3,0.4-0.4c0.2-0.1,0.4-0.2,0.6-0.2h0c0.2,0,0.4,0,0.6,0l0,0c0.2,0.1,0.3,0.1,0.5,0.3l3,2.3l0,0
	c0.2,0.1,0.3,0.3,0.4,0.4l0,0c0.1,0.2,0.2,0.4,0.2,0.6c0,0.2,0,0.4-0.1,0.6v0c-0.1,0.2-0.2,0.4-0.4,0.5c-0.2,0.2-0.4,0.4-0.7,0.5
	l0,0c-0.3,0.2-0.6,0.3-1,0.4c-1.6,0.5-3.4,0.4-5.1-0.1c-1.8-0.6-3.5-1.7-4.9-3.1c-1.4-1.4-2.5-3.1-3.1-4.9C0,5.7-0.1,4,0.5,2.3
	c0.1-0.4,0.3-0.7,0.5-1l0,0h0C1.1,1,1.3,0.8,1.5,0.6C1.6,0.4,1.8,0.3,2,0.2l0,0c0.2-0.1,0.4-0.1,0.6-0.1c0.2,0,0.4,0.1,0.6,0.2l0,0
	L3.7,0.7L3.7,0.7z M5.1,4.4L5.1,4.4l-2.3-3h0c0,0,0-0.1-0.1-0.1l0,0c0,0-0.1,0-0.1,0c0,0-0.1,0-0.1,0l0,0c0,0-0.1,0-0.1,0.1
	C2.2,1.6,2.1,1.7,2,1.9C1.9,2.1,1.7,2.4,1.6,2.7C1.2,4.1,1.3,5.6,1.7,7c0.5,1.6,1.5,3.1,2.8,4.4c1.3,1.3,2.8,2.3,4.4,2.8
	c1.4,0.5,2.9,0.6,4.3,0.1c0.3-0.1,0.5-0.2,0.7-0.3l0,0c0.2-0.1,0.4-0.3,0.5-0.4c0,0,0-0.1,0.1-0.1l0,0v0c0,0,0-0.1,0-0.1
	c0,0,0-0.1,0-0.1v0c0,0,0,0-0.1-0.1l0,0l-3-2.3v0c0,0-0.1,0-0.1,0h0c0,0-0.1,0-0.1,0h0c0,0-0.1,0-0.1,0v0v0c0,0-0.1,0-0.1,0.1v0v0
	l-0.9,1.3c-0.1,0.1-0.1,0.1-0.2,0.2c0,0-1.1,0.8-2.4-0.1c-0.8-0.5-1.5-1.1-2.2-1.8h0C4.9,9.8,4.3,9.1,3.8,8.3C2.9,7,3.6,5.9,3.6,5.9
	c0-0.1,0.1-0.1,0.2-0.2L5,4.8l0,0c0,0,0,0,0.1-0.1l0,0c0,0,0-0.1,0-0.1C5.2,4.6,5.2,4.6,5.1,4.4C5.1,4.5,5.1,4.5,5.1,4.4L5.1,4.4
	L5.1,4.4z M3.7,0.7L3.7,0.7L3.7,0.7L3.7,0.7L3.7,0.7z M3.7,0.7L3.7,0.7L3.7,0.7L3.7,0.7L3.7,0.7z"/>
</svg>
