<?xml version="1.0" encoding="utf-8"?>
<!-- Generator: Adobe Illustrator 23.0.0, SVG Export Plug-In . SVG Version: 6.00 Build 0)  -->
<svg version="1.1" id="圖層_1" xmlns="http://www.w3.org/2000/svg" xmlns:xlink="http://www.w3.org/1999/xlink" x="0px" y="0px"
	 viewBox="0 0 16 16" style="enable-background:new 0 0 16 16;" xml:space="preserve">
<style type="text/css">
	.st0{fill:#FFFFFF;}
</style>
<path class="st0" d="M0.6,3.5L0.6,3.5h14.8c0.3,0,0.6,0.3,0.6,0.6v0v11.2c0,0.3-0.3,0.6-0.6,0.6h0H0.6C0.3,16,0,15.7,0,15.4v0V4.1
	C0,3.8,0.3,3.5,0.6,3.5L0.6,3.5z M14.8,5.3L14.8,5.3l-6.5,6.5c-0.1,0.1-0.4,0.1-0.5,0L1.2,5.3v9.5h13.5V5.3L14.8,5.3z M14.3,4.7
	L14.3,4.7H1.7L8,11L14.3,4.7L14.3,4.7z"/>
</svg>
