<?xml version="1.0" encoding="utf-8"?>
<!-- Generator: Adobe Illustrator 23.0.0, SVG Export Plug-In . SVG Version: 6.00 Build 0)  -->
<svg version="1.1" id="圖層_1" xmlns="http://www.w3.org/2000/svg" xmlns:xlink="http://www.w3.org/1999/xlink" x="0px" y="0px"
	 viewBox="0 0 16 16" style="enable-background:new 0 0 16 16;" xml:space="preserve">
<style type="text/css">
	.st0{fill:#FFFFFF;}
</style>
<path class="st0" d="M11.3,7.4c0.3,0,0.6,0.3,0.6,0.6c0,0.3-0.3,0.6-0.6,0.6H8.1l-2.1,3.7c-0.1,0.2-0.3,0.2-0.5,0.1
	c-0.2-0.1-0.2-0.3-0.1-0.5l2.1-3.7c0-0.1,0-0.1,0-0.2v0V3.2c0-0.3,0.3-0.6,0.6-0.6c0.3,0,0.6,0.3,0.6,0.6v4.2H11.3L11.3,7.4z
	 M0.4,8.3L0.4,8.3C0.2,8.3,0,8.2,0,8c0-0.1,0.1-0.3,0.2-0.3c0,0,0,0,0,0l0,0c0,0,0.1,0,0.1,0h1.2c0.2,0,0.4,0.2,0.4,0.4
	c0,0.2-0.2,0.4-0.4,0.4H0.4L0.4,8.3z M8.4,15.6L8.4,15.6C8.4,15.8,8.2,16,8,16s-0.4-0.2-0.4-0.4v-1.2c0-0.2,0.2-0.3,0.4-0.3
	s0.4,0.2,0.4,0.3V15.6L8.4,15.6z M15.6,7.6L15.6,7.6C15.8,7.6,16,7.8,16,8c0,0.2-0.2,0.4-0.4,0.4h-1.2c-0.2,0-0.4-0.2-0.4-0.4
	c0-0.2,0.2-0.4,0.4-0.4H15.6L15.6,7.6z M3.9,1.5L3.9,1.5C3.8,1.4,3.8,1.2,4,1.1C4.2,1,4.4,1,4.5,1.2l0.4,0.7C5,2,4.9,2.2,4.7,2.3
	c-0.2,0.1-0.4,0-0.5-0.1L3.9,1.5L3.9,1.5z M1.2,4.5L1.2,4.5C1,4.4,1,4.2,1.1,4c0.1-0.2,0.3-0.2,0.5-0.1l0.7,0.4
	c0.2,0.1,0.2,0.3,0.1,0.5C2.2,4.9,2,5,1.9,4.9L1.2,4.5L1.2,4.5z M1.6,12.1L1.6,12.1c-0.2,0.1-0.4,0-0.5-0.1c-0.1-0.2,0-0.4,0.1-0.5
	l0.7-0.4c0.2-0.1,0.4,0,0.5,0.1c0.1,0.2,0,0.4-0.1,0.5L1.6,12.1L1.6,12.1z M4.5,14.8L4.5,14.8C4.4,15,4.2,15,4,14.9
	c-0.2-0.1-0.2-0.3-0.1-0.5l0.4-0.7c0.1-0.2,0.3-0.2,0.5-0.1C4.9,13.8,5,14,4.9,14.1L4.5,14.8L4.5,14.8z M12.1,14.4L12.1,14.4
	c0.1,0.2,0,0.4-0.1,0.5c-0.2,0.1-0.4,0-0.5-0.1l-0.4-0.7c-0.1-0.2,0-0.4,0.1-0.5c0.2-0.1,0.4,0,0.5,0.1L12.1,14.4L12.1,14.4z
	 M14.8,11.5L14.8,11.5c0.2,0.1,0.2,0.3,0.1,0.5c-0.1,0.2-0.3,0.2-0.5,0.1l-0.7-0.4c-0.2-0.1-0.2-0.3-0.1-0.5
	c0.1-0.2,0.3-0.2,0.5-0.1L14.8,11.5L14.8,11.5z M14.4,3.9L14.4,3.9c0.2-0.1,0.4,0,0.5,0.1c0.1,0.2,0,0.4-0.1,0.5l-0.7,0.4
	c-0.2,0.1-0.4,0-0.5-0.1c-0.1-0.2,0-0.4,0.1-0.5L14.4,3.9L14.4,3.9z M11.5,1.2L11.5,1.2C11.6,1,11.8,1,12,1.1
	c0.2,0.1,0.2,0.3,0.1,0.5l-0.4,0.7c-0.1,0.2-0.3,0.2-0.5,0.1C11.1,2.2,11,2,11.1,1.9L11.5,1.2L11.5,1.2z M7.6,0.3L7.6,0.3
	C7.6,0.2,7.8,0,8,0s0.4,0.2,0.4,0.3v0.8v0v0.4c0,0.2-0.2,0.4-0.4,0.4S7.6,1.7,7.6,1.5V1.1v0V0.3L7.6,0.3z"/>
</svg>
