<?xml version="1.0" encoding="utf-8"?>
<!-- Generator: Adobe Illustrator 23.0.0, SVG Export Plug-In . SVG Version: 6.00 Build 0)  -->
<svg version="1.1" id="圖層_1" xmlns="http://www.w3.org/2000/svg" xmlns:xlink="http://www.w3.org/1999/xlink" x="0px" y="0px"
	 viewBox="0 0 15 15" style="enable-background:new 0 0 15 15;" xml:space="preserve">
<style type="text/css">
	.st0{fill:#FFFFFF;}
</style>
<path class="st0" d="M11.7,8.3c0-0.3,0.3-0.6,0.6-0.6c0.3,0,0.6,0.3,0.6,0.6v5.7c0,0.3-0.3,0.6-0.6,0.6h0H2.7
	c-0.3,0-0.6-0.3-0.6-0.6v0V8.3c0-0.3,0.3-0.6,0.6-0.6c0.3,0,0.6,0.3,0.6,0.6v5.1h1.9V7.6c0-0.2,0.2-0.3,0.3-0.3h0h3.9
	c0.2,0,0.3,0.2,0.3,0.3v0v5.7h1.9V8.3L11.7,8.3z M5.9,13.3L5.9,13.3h3.3V8H5.9V13.3L5.9,13.3z M1,8.4L1,8.4c-0.2,0.2-0.6,0.2-0.8,0
	c-0.2-0.2-0.2-0.6,0-0.8l6.9-6.9c0.2-0.2,0.6-0.2,0.8,0l0,0l6.9,6.9c0.2,0.2,0.2,0.6,0,0.8c-0.2,0.2-0.6,0.2-0.8,0L7.5,1.9L1,8.4
	L1,8.4z"/>
</svg>
