<?xml version="1.0" encoding="utf-8"?>
<!-- Generator: Adobe Illustrator 23.0.0, SVG Export Plug-In . SVG Version: 6.00 Build 0)  -->
<svg version="1.1" id="圖層_1" xmlns="http://www.w3.org/2000/svg" xmlns:xlink="http://www.w3.org/1999/xlink" x="0px" y="0px"
	 viewBox="0 0 43 44" style="enable-background:new 0 0 43 44;" xml:space="preserve">
<style type="text/css">
	.st0{fill:#B20054;}
	.st1{fill:#FFABDA;}
	.st2{fill:#FFFFFF;}
</style>
<path class="st0" d="M43,42"/>
<polyline class="st0" points="43,40.3 4,0 2,0 0,1.5 5.1,1.5 41.5,39.9 "/>
<path class="st1" d="M43,2.6C43,1.1,41.9,0,40.4,0L2,0l41,42V2.6z"/>
<g>
	<path class="st2" d="M21.9,7.5c-0.2,0.2-0.4,0.2-0.5,0c-0.1-0.1-0.1-0.2-0.1-0.3c0-0.1,0-0.2,0.1-0.3L22.3,6l-1.2-1.2l-0.9,0.9
		c-0.1,0.1-0.2,0.1-0.3,0.1c-0.1,0-0.2,0-0.3-0.1c-0.2-0.2-0.2-0.4,0-0.5L22,3.1C22,3,22.1,2.9,22.3,2.9c0.1,0,0.2,0,0.3,0.1
		c0.2,0.2,0.1,0.3-0.1,0.5l-0.8,0.7l1.2,1.2l0.8-0.7c0.2-0.2,0.4-0.2,0.5,0c0.2,0.2,0.2,0.4,0,0.5L21.9,7.5z"/>
	<path class="st2" d="M25.6,9.1c-0.4,0.4-0.8,0.6-1.3,0.7c-0.5,0-0.9-0.1-1.3-0.5c-0.4-0.4-0.5-0.8-0.5-1.3c0.1-0.4,0.3-0.9,0.7-1.2
		c0.4-0.4,0.8-0.6,1.3-0.6c0.5,0,0.9,0.1,1.3,0.5c0.3,0.4,0.5,0.8,0.4,1.3C26.2,8.3,26,8.7,25.6,9.1z M25.1,8.6
		c0.2-0.2,0.4-0.5,0.5-0.7c0.1-0.3,0-0.6-0.2-0.8c-0.2-0.2-0.5-0.3-0.8-0.3c-0.3,0-0.5,0.2-0.8,0.4c-0.2,0.2-0.4,0.5-0.4,0.7
		c-0.1,0.3,0,0.6,0.2,0.8C23.8,8.9,24,9,24.3,9C24.6,8.9,24.8,8.8,25.1,8.6z"/>
	<path class="st2" d="M29,10.6c-0.1,0.1-0.1,0.1-0.2,0.1c-0.1,0-0.2,0-0.2-0.1l-0.7-0.7L26,11.7c-0.2,0.2-0.4,0.2-0.5,0
		c-0.2-0.2-0.2-0.4,0.1-0.6l1.9-1.8l-0.6-0.6c-0.1-0.1-0.1-0.2-0.1-0.2c0-0.1,0.1-0.2,0.1-0.2c0.1-0.1,0.2-0.1,0.2-0.1
		c0.1,0,0.2,0,0.2,0.1l1.8,1.9c0.1,0.1,0.1,0.2,0.1,0.2C29.2,10.5,29.1,10.6,29,10.6z"/>
	<path class="st2" d="M30.9,15.9c-0.5,0.5-1.2,0.4-1.9-0.4c-0.3-0.3-0.5-0.8-0.6-1.2c0-0.3,0-0.5,0.1-0.6c0.1-0.1,0.2-0.1,0.3-0.1
		c0.1,0,0.2,0,0.3,0.1c0,0,0.1,0.2,0.1,0.4c0,0.3,0.1,0.5,0.1,0.5c0.1,0.2,0.1,0.4,0.3,0.5c0.4,0.4,0.6,0.5,0.8,0.3
		c0.1-0.1,0-0.5-0.3-1.3c-0.2-0.3-0.3-0.6-0.3-0.8c-0.1-0.3,0-0.6,0.2-0.8c0.3-0.3,0.6-0.3,0.9-0.2c0.3,0.1,0.5,0.3,0.8,0.6
		c0.4,0.4,0.6,0.8,0.6,1.1c0,0.1,0,0.3-0.1,0.4c-0.2,0.2-0.3,0.1-0.5,0c0,0-0.1-0.2-0.2-0.4c-0.1-0.3-0.2-0.4-0.3-0.5
		c-0.3-0.3-0.5-0.4-0.7-0.3c0,0,0,0.1,0,0.1c0,0.1,0.1,0.4,0.3,0.9c0.2,0.5,0.3,0.8,0.4,1C31.3,15.4,31.2,15.7,30.9,15.9z"/>
	<path class="st2" d="M33.1,19.3c-0.1,0.1-0.2,0.1-0.3,0.1c-0.1,0-0.2-0.1-0.3-0.1c-0.1-0.1-0.1-0.2,0-0.4l0.2-0.6L31.5,17L31,17.2
		c-0.2,0.1-0.3,0-0.4-0.1c-0.1-0.1-0.1-0.2-0.1-0.3c0-0.1,0-0.2,0.1-0.3c0,0,0.1-0.1,0.2-0.1l3.2-1c0.2-0.1,0.3,0,0.4,0.1
		c0.1,0.1,0.2,0.3,0.1,0.5l-1.2,3.1C33.2,19.2,33.2,19.2,33.1,19.3z M33,17.5l0.5-1.2l-1.3,0.5L33,17.5z"/>
	<path class="st2" d="M35.4,21.6c-0.2,0.2-0.3,0.2-0.5,0l-1.4-1.4c-0.3-0.3-0.3-0.6,0-0.9l2-1.9c0.2-0.2,0.4-0.2,0.6,0
		c0.2,0.2,0.1,0.3-0.1,0.5l-1.8,1.7c-0.1,0.1-0.1,0.2,0,0.3l1.2,1.2C35.6,21.3,35.6,21.4,35.4,21.6z"/>
	<path class="st2" d="M37.8,24.1c-0.2,0.2-0.3,0.1-0.5,0l-1.5-1.6c-0.1-0.1-0.2-0.3-0.2-0.4c0-0.1,0.1-0.3,0.2-0.4l1.8-1.7
		c0.3-0.3,0.5-0.2,0.8,0l1.5,1.6c0.1,0.1,0.1,0.2,0.1,0.2c0,0.1-0.1,0.2-0.1,0.2c-0.1,0.1-0.1,0.1-0.2,0.1c-0.1,0-0.2,0-0.2-0.1
		l-1.2-1.3c-0.1-0.1-0.1-0.1-0.2-0.1c-0.1,0-0.1,0-0.2,0.1l-0.3,0.3l1.3,1.3c0.1,0.1,0.1,0.2,0.1,0.2c0,0.1-0.1,0.2-0.1,0.2
		c-0.1,0.1-0.2,0.1-0.3,0.1c-0.1,0-0.2,0-0.2-0.1L37,21.5l-0.4,0.4c-0.1,0.1-0.1,0.2,0,0.4l1.2,1.3c0.1,0.1,0.1,0.2,0.1,0.2
		C37.9,24,37.9,24,37.8,24.1z"/>
	<path class="st2" d="M23.7,13c-0.1,0.1-0.1,0.1-0.2,0.1c-0.1,0-0.2,0-0.2-0.1l-0.7-0.7l-1.9,1.8c-0.2,0.2-0.4,0.2-0.5,0
		c-0.2-0.2-0.2-0.4,0.1-0.6l1.9-1.8l-0.6-0.6c-0.1-0.1-0.1-0.2-0.1-0.2c0-0.1,0.1-0.2,0.1-0.2c0.1-0.1,0.2-0.1,0.2-0.1
		c0.1,0,0.2,0,0.2,0.1l1.8,1.9c0.1,0.1,0.1,0.2,0.1,0.2C23.8,12.9,23.7,12.9,23.7,13z"/>
	<path class="st2" d="M25.1,16.6c-0.4,0.4-0.8,0.6-1.3,0.7c-0.5,0-0.9-0.1-1.3-0.5c-0.4-0.4-0.5-0.8-0.5-1.3
		c0.1-0.4,0.3-0.9,0.7-1.2s0.8-0.6,1.3-0.6c0.5,0,0.9,0.1,1.3,0.5c0.3,0.4,0.5,0.8,0.4,1.3C25.7,15.8,25.5,16.2,25.1,16.6z
		 M24.6,16.1c0.2-0.2,0.4-0.5,0.5-0.7c0.1-0.3,0-0.6-0.2-0.8c-0.2-0.2-0.5-0.3-0.8-0.3c-0.3,0-0.5,0.2-0.8,0.4
		c-0.2,0.2-0.4,0.5-0.4,0.7c-0.1,0.3,0,0.6,0.2,0.8c0.2,0.2,0.5,0.3,0.8,0.3C24.1,16.5,24.3,16.3,24.6,16.1z"/>
	<path class="st2" d="M27.9,18.7c-0.2,0.2-0.5,0.4-0.8,0.4c-0.3,0-0.6-0.1-0.8-0.3l-0.9-0.9l-0.7,0.7c-0.2,0.2-0.3,0.2-0.5,0
		c-0.2-0.2-0.2-0.3,0-0.5l2-1.9c0.1-0.1,0.3-0.2,0.4-0.2c0.2,0,0.3,0.1,0.4,0.2l1,1.1c0.2,0.2,0.3,0.5,0.3,0.8
		C28.3,18.2,28.2,18.5,27.9,18.7z M27.4,18.2c0.1-0.1,0.2-0.2,0.2-0.3c0-0.1,0-0.2-0.1-0.3l-0.8-0.8c-0.1-0.1-0.1-0.1-0.2,0
		l-0.6,0.5l0.9,0.9c0.1,0.1,0.2,0.1,0.3,0.1C27.2,18.4,27.3,18.3,27.4,18.2z"/>
	<path class="st2" d="M30.6,23.4c-0.3,0.3-0.7,0.4-1,0.3c-0.3-0.1-0.7-0.2-0.9-0.5c-0.3-0.4-0.5-0.8-0.6-1.2c0-0.2,0-0.4,0.1-0.5
		c0.1-0.1,0.2-0.1,0.2-0.1c0.1,0,0.2,0,0.3,0.1c0.1,0.1,0.1,0.2,0.2,0.4c0.1,0.4,0.2,0.6,0.4,0.8c0.2,0.2,0.3,0.3,0.5,0.3
		c0.2,0,0.3,0,0.4-0.2c0.3-0.3,0.2-0.6-0.1-1c-0.2-0.2-0.3-0.3-0.6-0.4c-0.2-0.1-0.4-0.2-0.4-0.2c-0.1-0.1-0.1-0.2-0.1-0.3
		c0-0.1,0.1-0.2,0.2-0.3l0.9-0.8c0.3-0.2,0.5-0.2,0.7,0l1.4,1.5c0.2,0.2,0.2,0.4,0,0.5C32,22,31.9,22,31.8,22c-0.1,0-0.2,0-0.2-0.1
		l-1.2-1.3c-0.1-0.1-0.1-0.1-0.2,0l-0.3,0.3c0.3,0.1,0.5,0.3,0.8,0.5c0.3,0.3,0.4,0.6,0.4,1C31.1,22.7,30.9,23.1,30.6,23.4z"/>
</g>
<polygon class="st0" points="2,0 3.5,1.5 0.2,1.5 "/>
<polygon class="st0" points="41.5,40.4 43,42 41.5,44 "/>
</svg>
