<?xml version="1.0" encoding="utf-8"?>
<!-- Generator: Adobe Illustrator 22.1.0, SVG Export Plug-In . SVG Version: 6.00 Build 0)  -->
<svg version="1.1" id="圖層_1" xmlns="http://www.w3.org/2000/svg" xmlns:xlink="http://www.w3.org/1999/xlink" x="0px" y="0px"
	 viewBox="0 0 40 40" style="enable-background:new 0 0 40 40;" xml:space="preserve">
<style type="text/css">
	.st0{fill:#AFAFAF;}
</style>
<g>
	<path class="st0" d="M38.6,12.9H9L5.8,9.5c0-0.1-0.1-0.1-0.2-0.1C5.5,9.2,5.3,9,5,9H0.8C0.4,9,0,9.3,0,9.7v0.8
		c0,0.4,0.4,0.7,0.8,0.7h3.6c0,0,0,0.1,0.1,0.1l2.6,3l3.4,17c0.2,0.8,1.3,1.5,2.3,1.5h18c1.1,0,2.2-0.7,2.5-1.5l6.6-16.8
		C40.2,13.6,39.6,12.9,38.6,12.9z M14.5,31.2l-2.2-1.7l-1-4l7.1,5.8H14.5z M29.6,31.2h-3.8L9.7,17.9l-0.5-2.1
		c-0.1-0.5,0.1-0.9,0.5-1.1l20.2,16.6C29.8,31.2,29.7,31.2,29.6,31.2z M32.7,27.6L16.6,14.5h4l13.1,10.6L32.7,27.6z M35.4,20.6
		l-7.5-6.1h4l4.5,3.7L35.4,20.6z"/>
	<g>
		<circle class="st0" cx="13.5" cy="37.2" r="2.8"/>
		<circle class="st0" cx="31.4" cy="37.2" r="2.8"/>
	</g>
</g>
</svg>
