<?xml version="1.0" encoding="utf-8"?>
<!-- Generator: Adobe Illustrator 22.1.0, SVG Export Plug-In . SVG Version: 6.00 Build 0)  -->
<svg version="1.1" id="圖層_1" xmlns="http://www.w3.org/2000/svg" xmlns:xlink="http://www.w3.org/1999/xlink" x="0px" y="0px"
	 viewBox="0 0 40 40" style="enable-background:new 0 0 40 40;" xml:space="preserve">
<style type="text/css">
	.st0{fill:#FFFFFF;}
	.st1{fill:#999999;}
	.st2{fill:#EEEAE7;}
	.st3{opacity:0.5;}
	.st4{opacity:0.2;}
	.st5{fill:#495565;}
</style>
<g>
	<g>
		<g>
			<path class="st0" d="M23.1,39.8c-0.9,0-1.6-0.1-2.3-0.3c-0.6,0.2-1.4,0.3-2.3,0.3c-5.4,0-14.2-3.5-14.3-3.5l-0.1-0.1v-0.2
				c0-0.2,0-4,2.2-6.8c1.6-2.1,8.7-5.2,9.4-5.5c0.8-1.1-0.1-5.5-0.5-7.1l-0.1-0.5l5.7,2.8l5.7-2.8l-0.1,0.5c-0.4,1.6-1.3,6-0.5,7.1
				c0.8,0.3,7.8,3.4,9.4,5.5c2.2,2.9,2.2,6.7,2.2,6.8v0.2l-0.1,0.1C37.3,36.3,28.5,39.8,23.1,39.8C23.1,39.8,23.1,39.8,23.1,39.8z"
				/>
			<path class="st1" d="M26.2,16.6c0,0-0.9,3.5-0.8,5.7c0,0.9,0.6,1.7,1.4,2.1c2.2,1,7.1,3.3,8.4,5c1.1,1.5,1.7,3.3,1.9,4.6
				c0.2,1.2-0.4,2.3-1.6,2.7c-2.9,1-8.5,2.8-12.4,2.8c-0.6,0-1.2,0-1.8-0.2c-0.3-0.1-0.7-0.1-1,0c-0.5,0.1-1.1,0.2-1.8,0.2
				c-3.9,0-9.6-1.8-12.4-2.8C5,36.3,4.4,35.2,4.6,34c0.3-1.3,0.8-3.1,1.9-4.6c1.3-1.7,6.2-4,8.4-5c0.8-0.4,1.4-1.2,1.4-2.1
				c0-0.4,0-0.8,0-1.3c-0.2-1.9,1.8-3.2,3.5-2.4l0,0c0.7,0.3,1.5,0.3,2.1,0L26.2,16.6 M14.8,15.7l0.2,1c0.6,2.3,0.8,4.1,0.8,5.3
				c0,0.9-0.6,1.8-1.4,2.1c-2.3,1-7,3.3-8.3,5c-2.2,2.9-2.2,6.8-2.2,7v0.3l0.3,0.1c0.4,0.1,8.9,3.5,14.4,3.5c0.7,0,1.3-0.1,1.8-0.2
				c0.3-0.1,0.7-0.1,1,0c0.5,0.1,1.1,0.2,1.8,0.2c5.4,0,14-3.4,14.4-3.5l0.3-0.1v-0.3c0-0.2,0-4-2.2-7c-1.3-1.7-6-4-8.3-5
				c-0.8-0.4-1.4-1.2-1.4-2.1c0-1.2,0.2-2.9,0.8-5.3l0.2-1L26,16.2l-4.1,2c-0.7,0.3-1.5,0.3-2.1,0l-4.1-2L14.8,15.7L14.8,15.7z"/>
		</g>
		<path class="st2" d="M26.1,16.2L20.9,17l-5.4-0.8c1.2,2.6,3,6.8,5.3,6.8C23.2,23,24.9,18.8,26.1,16.2z"/>
		<g>
			<path class="st0" d="M20.8,21.4c-2.6,0-4.8-2.3-6.2-6.4c0,0-0.1,0-0.1,0c-0.8,0-1.2-1-1.5-2c-0.3-1.1-0.5-2.1-0.1-2.6
				c0.1-0.1,0.2-0.2,0.4-0.2c0-0.1,0-0.2,0-0.3c0-1.9,0.1-3.6,0.7-5c1.3-2.8,3.9-4.5,6.8-4.5c3,0,5.5,1.7,6.8,4.5
				c0.6,1.3,0.7,3.2,0.7,5c0,0.1,0,0.2,0,0.3c0.1,0,0.2,0.1,0.3,0.2c0.5,0.6,0,2.6,0,2.7c-0.3,1.1-0.6,2-1.5,2c0,0-0.1,0-0.1,0
				C25.6,19.1,23.4,21.4,20.8,21.4z"/>
			<path class="st1" d="M20.8,0.5c2.8,0,5.3,1.6,6.6,4.4c0.6,1.3,0.7,3.2,0.7,4.9c0,0.2,0,0.3,0,0.5c0,0,0.1,0,0.1,0
				c0.6,0,0.4,1.6,0.2,2.6c-0.3,1.1-0.6,1.9-1.2,1.9c-0.1,0-0.1,0-0.2,0c0,0,0,0,0,0c0,0,0,0.1,0,0.1c-1.2,3.5-3.2,6.3-6.1,6.3
				c-2.8,0-4.8-2.9-6.1-6.3c0,0,0-0.1,0-0.1c0,0,0,0,0,0c-0.1,0-0.1,0-0.2,0c-0.6,0-1-0.8-1.2-1.9c-0.3-1.1-0.6-2.6,0.3-2.6
				c0,0,0,0,0,0c0-0.2,0-0.3,0-0.5c0-1.7,0-3.5,0.7-4.9C15.5,2.1,18,0.5,20.8,0.5 M20.8,0.1c-3,0-5.7,1.7-7,4.6
				c-0.6,1.4-0.7,3.2-0.7,5.1c0,0,0,0.1,0,0.1C13,10,12.9,10,12.8,10.1c-0.4,0.5-0.3,1.5,0,2.8c0.2,0.7,0.5,2.1,1.6,2.2
				c1.5,4.1,3.8,6.4,6.4,6.4c2.6,0,4.9-2.3,6.4-6.4c1.1-0.1,1.4-1.5,1.6-2.2c0.1-0.2,0.5-2.2,0-2.9c-0.1-0.1-0.1-0.2-0.2-0.2
				c0,0,0-0.1,0-0.1c0-1.9-0.1-3.7-0.7-5.1C26.5,1.8,23.9,0.1,20.8,0.1L20.8,0.1z"/>
		</g>
		<g>
			<g>
				<path class="st2" d="M18.5,39.3c-0.4,0.1-0.8,0.2-1.2,0.2c0.8,0.1,1.6,0.1,2.3,0C19.2,39.4,18.8,39.4,18.5,39.3z"/>
			</g>
			<g class="st3">
				<path class="st2" d="M24.7,14.7c-0.6-0.2-1.3,3.7-1.3,4c-1,5.5,0.8,5.3,5.1,7.6c2.4,1.3,8.7,6.1,6.5,9.7
					c-1.3,2.2-10.7,3.2-13,3.4c2.1,0.2,15.4-1.5,15.2-4.1c-0.3-3.5-1.3-6.3-4.4-8.1c-4.7-2.7-6-2.9-7.1-3.4
					c-1.3-3.4,0.6-7.1,1.9-9.1c0.8-1.2,1.2-2.8,1.2-4.5c0-0.2-0.8-0.1-0.8-0.3c0.7-4.9-2.2-10.3-8.4-9.5
					C23.9,1.3,25.4,10.1,24.7,14.7z"/>
			</g>
		</g>
		<g class="st4">
			<path class="st5" d="M28.1,9.7C28.1,9.7,28.1,9.7,28.1,9.7c0-0.1,0-0.3,0-0.4C28.1,9.4,28.1,9.5,28.1,9.7z"/>
			<path class="st5" d="M13.6,9.7c0-0.1,0-0.3,0-0.4C13.5,9.4,13.5,9.6,13.6,9.7C13.5,9.7,13.6,9.7,13.6,9.7z"/>
			<path class="st5" d="M14.7,14.7C14.7,14.7,14.7,14.7,14.7,14.7c0,0,0,0.1,0.1,0.1c1.2,3.5,3.2,6.3,6.1,6.3c2.8,0,4.8-2.9,6.1-6.3
				c0,0,0-0.1,0-0.1c0,0,0,0,0,0c0.8,0.2,1.2-0.6,1.5-1.8c0.1-0.5,0.2-1.1,0.2-1.5c0,0.3-0.1,0.7-0.2,1c-0.3,1.2-0.7,2-1.5,1.8
				c0,0,0,0,0,0c0,0,0,0.1,0,0.1c-1.2,3.5-3.2,6.3-6.1,6.3C18,20.6,16,18.1,14.7,14.7"/>
		</g>
	</g>
</g>
</svg>
