<?xml version="1.0" encoding="utf-8"?>
<!-- Generator: Adobe Illustrator 23.0.0, SVG Export Plug-In . SVG Version: 6.00 Build 0)  -->
<svg version="1.1" id="圖層_1" xmlns="http://www.w3.org/2000/svg" xmlns:xlink="http://www.w3.org/1999/xlink" x="0px" y="0px"
	 viewBox="0 0 15 15" style="enable-background:new 0 0 15 15;" xml:space="preserve">
<style type="text/css">
	.st0{fill:#FFFFFF;}
</style>
<path class="st0" d="M7.1,14.1L1.4,8.3C0.8,7.7,0.3,7,0.1,6.3C-0.1,5.5,0,4.7,0.2,3.9c0.2-0.7,0.6-1.3,1.2-1.8
	C1.9,1.6,2.5,1.2,3.2,1c0.8-0.3,1.6-0.3,2.4-0.1c0.7,0.2,1.3,0.5,1.9,1c0.6-0.5,1.2-0.8,1.9-1c0.8-0.2,1.6-0.2,2.4,0.1
	c0.7,0.2,1.4,0.6,1.9,1.1c0.5,0.5,0.9,1.1,1.2,1.8c0.3,0.8,0.3,1.6,0.1,2.3c-0.2,0.8-0.6,1.5-1.2,2.1l0,0l-5.7,5.7
	C7.7,14.3,7.3,14.3,7.1,14.1L7.1,14.1L7.1,14.1z M8.2,2.8L8.2,2.8L6.3,4.7C6.2,4.8,6,4.8,5.9,4.7c-0.1-0.1-0.1-0.4,0-0.5L7,3l0,0
	C6.5,2.5,5.9,2.2,5.3,2c-0.6-0.2-1.1-0.2-1.7,0c-0.5,0.2-1,0.5-1.4,0.9C1.8,3.3,1.5,3.8,1.3,4.3C1.1,4.9,1.1,5.4,1.3,6
	c0.1,0.6,0.5,1.1,0.9,1.6l5.3,5.3l5.3-5.3l0,0c0.5-0.5,0.8-1,0.9-1.6c0.1-0.5,0.1-1.1-0.1-1.7h0c-0.2-0.5-0.5-1-0.9-1.4
	c-0.4-0.4-0.9-0.7-1.4-0.9c-0.6-0.2-1.2-0.2-1.8,0C9.1,2.2,8.6,2.4,8.2,2.8L8.2,2.8z"/>
</svg>
