<?xml version="1.0" encoding="utf-8"?>
<!-- Generator: Adobe Illustrator 23.0.0, SVG Export Plug-In . SVG Version: 6.00 Build 0)  -->
<svg version="1.1" id="圖層_1" xmlns="http://www.w3.org/2000/svg" xmlns:xlink="http://www.w3.org/1999/xlink" x="0px" y="0px"
	 viewBox="0 0 15 15" style="enable-background:new 0 0 15 15;" xml:space="preserve">
<style type="text/css">
	.st0{fill:#FFFFFF;}
</style>
<path class="st0" d="M0.6,0.9L0.6,0.9h13.8c0.3,0,0.6,0.2,0.6,0.6v0v12.1c0,0.3-0.3,0.6-0.6,0.6h0H0.6c-0.3,0-0.6-0.3-0.6-0.6v0V1.4
	C0,1.1,0.3,0.9,0.6,0.9L0.6,0.9z M8.3,6.4L8.3,6.4L8.3,6.4h3c0.2,0,0.3,0.2,0.3,0.4v0v3c0,0.2-0.2,0.3-0.3,0.3h0h-3
	C8.1,10.1,8,10,8,9.8v0v-3C8,6.6,8.1,6.4,8.3,6.4L8.3,6.4z M11,7.1L11,7.1H8.7v2.4H11V7.1L11,7.1z M7.1,6.4L7.1,6.4
	c0.2,0,0.3,0.2,0.3,0.4c0,0.2-0.1,0.3-0.3,0.3H3.6c-0.2,0-0.3-0.2-0.3-0.3c0-0.2,0.2-0.4,0.3-0.4H7.1L7.1,6.4z M7.1,7.9L7.1,7.9
	c0.2,0,0.3,0.2,0.3,0.3c0,0.2-0.1,0.3-0.3,0.3H3.6c-0.2,0-0.3-0.2-0.3-0.3c0-0.2,0.2-0.3,0.3-0.3H7.1L7.1,7.9z M7.1,9.5L7.1,9.5
	c0.2,0,0.3,0.2,0.3,0.3c0,0.2-0.1,0.3-0.3,0.3H3.6c-0.2,0-0.3-0.2-0.3-0.3c0-0.2,0.2-0.3,0.3-0.3H7.1L7.1,9.5z M11.4,11L11.4,11
	c0.2,0,0.3,0.2,0.3,0.3c0,0.2-0.2,0.3-0.3,0.3H3.6c-0.2,0-0.3-0.2-0.3-0.3c0-0.2,0.2-0.3,0.3-0.3H11.4L11.4,11z M12.9,2.6L12.9,2.6
	c0.3,0,0.6,0.3,0.6,0.6c0,0.3-0.3,0.6-0.6,0.6c-0.3,0-0.6-0.3-0.6-0.6C12.4,2.9,12.6,2.6,12.9,2.6L12.9,2.6z M11.5,2.6L11.5,2.6
	c0.3,0,0.6,0.3,0.6,0.6c0,0.3-0.3,0.6-0.6,0.6c-0.3,0-0.6-0.3-0.6-0.6C10.9,2.9,11.2,2.6,11.5,2.6L11.5,2.6z M10.1,2.6L10.1,2.6
	c0.3,0,0.6,0.3,0.6,0.6c0,0.3-0.3,0.6-0.6,0.6c-0.3,0-0.6-0.3-0.6-0.6C9.5,2.9,9.8,2.6,10.1,2.6L10.1,2.6z M1.2,4.4L1.2,4.4h12.7V2
	H1.2V4.4L1.2,4.4z M13.8,5.1L13.8,5.1H1.2V13h12.7V5.1L13.8,5.1z"/>
</svg>
