<?xml version="1.0" encoding="utf-8"?>
<!-- Generator: Adobe Illustrator 23.0.0, SVG Export Plug-In . SVG Version: 6.00 Build 0)  -->
<svg version="1.1" id="圖層_1" xmlns="http://www.w3.org/2000/svg" xmlns:xlink="http://www.w3.org/1999/xlink" x="0px" y="0px"
	 viewBox="0 0 30 30" style="enable-background:new 0 0 30 30;" xml:space="preserve">
<style type="text/css">
	.st0{fill:#3A8FB7;}
	.st1{fill:#FFFFFF;}
</style>
<rect class="st0" width="30" height="30"/>
<path class="st1" d="M22.8,21.9L19.9,19c0.5-0.6,0.9-1.2,1.1-1.9c0.4-0.9,0.6-1.8,0.6-2.8c0-1-0.2-1.9-0.5-2.8l0,0
	c-0.4-0.9-0.9-1.7-1.6-2.3l0,0c-0.7-0.7-1.5-1.2-2.4-1.6h0C16.2,7.2,15.3,7,14.3,7c-2,0-3.8,0.8-5.2,2.1c-0.7,0.7-1.2,1.5-1.6,2.4
	C7.2,12.4,7,13.3,7,14.3c0,1,0.2,1.9,0.5,2.8l0,0c0.4,0.9,0.9,1.7,1.6,2.4h0c0.7,0.7,1.5,1.2,2.4,1.6c0.9,0.4,1.8,0.6,2.8,0.6
	c1,0,1.9-0.2,2.8-0.6c0.7-0.3,1.3-0.7,1.9-1.1l2.9,2.9c0.3,0.3,0.7,0.3,0.9,0C23.1,22.5,23.1,22.1,22.8,21.9L22.8,21.9z M18.5,18.5
	L18.5,18.5L18.5,18.5L18.5,18.5c-0.6,0.5-1.2,1-1.9,1.3c-0.7,0.3-1.5,0.5-2.3,0.5c-0.8,0-1.6-0.2-2.3-0.5c-0.7-0.3-1.4-0.7-1.9-1.3
	l0,0c-0.5-0.6-1-1.2-1.3-1.9l0,0c-0.3-0.7-0.4-1.4-0.4-2.2c0-0.8,0.2-1.6,0.5-2.3c0.3-0.7,0.7-1.4,1.3-1.9c1.1-1.1,2.6-1.7,4.2-1.7
	c0.8,0,1.6,0.2,2.3,0.4l0,0c0.7,0.3,1.4,0.7,1.9,1.3l0,0c0.5,0.5,1,1.2,1.3,1.9l0,0c0.3,0.7,0.4,1.5,0.4,2.3c0,0.8-0.2,1.6-0.4,2.3
	C19.5,17.3,19.1,18,18.5,18.5L18.5,18.5z M12.5,10L12.5,10c-0.3,0.1-0.6,0.3-0.8,0.4c-0.3,0.2-0.5,0.4-0.7,0.6l0,0l0,0
	c-0.2,0.2-0.4,0.5-0.6,0.7v0c-0.2,0.2-0.3,0.5-0.4,0.8c-0.1,0.2,0,0.4,0.2,0.5c0.2,0.1,0.4,0,0.5-0.2c0.1-0.2,0.2-0.5,0.4-0.7
	c0.1-0.2,0.3-0.4,0.5-0.6c0.2-0.2,0.4-0.3,0.6-0.5c0.2-0.1,0.4-0.3,0.7-0.4c0.2-0.1,0.3-0.3,0.2-0.5C12.9,10,12.7,9.9,12.5,10
	L12.5,10z M18.6,13.9L18.6,13.9c-0.2,0-0.4,0.2-0.4,0.4c0,0.5-0.1,1-0.3,1.5l0,0c-0.2,0.5-0.5,0.9-0.8,1.3c-0.4,0.4-0.8,0.7-1.3,0.8
	c-0.5,0.2-1,0.3-1.5,0.3c-0.2,0-0.4,0.2-0.4,0.4c0,0.2,0.2,0.4,0.4,0.4c0.6,0,1.2-0.1,1.8-0.4c0.6-0.2,1.1-0.6,1.5-1
	c0.4-0.4,0.8-1,1-1.5l0,0c0.2-0.6,0.4-1.2,0.4-1.8C19,14.1,18.8,13.9,18.6,13.9L18.6,13.9z"/>
</svg>
