<?xml version="1.0" encoding="utf-8"?>
<!-- Generator: Adobe Illustrator 22.1.0, SVG Export Plug-In . SVG Version: 6.00 Build 0)  -->
<svg version="1.1" id="圖層_1" xmlns="http://www.w3.org/2000/svg" xmlns:xlink="http://www.w3.org/1999/xlink" x="0px" y="0px"
	 viewBox="0 0 22 16" style="enable-background:new 0 0 22 16;" xml:space="preserve">
<style type="text/css">
	.st0{fill:#FFFFFF;}
</style>
<g>
	<path class="st0" d="M9.9,11.9c-1.1,0-2.1,0.9-2.1,2.1S8.7,16,9.9,16s2.1-0.9,2.1-2.1S11,11.9,9.9,11.9z M9.9,14.9
		c-0.6,0-1-0.4-1-1s0.4-1,1-1s1,0.4,1,1S10.5,14.9,9.9,14.9z"/>
	<path class="st0" d="M15.7,11.9c-1.1,0-2.1,0.9-2.1,2.1s0.9,2.1,2.1,2.1s2.1-0.9,2.1-2.1S16.9,11.9,15.7,11.9z M15.7,14.9
		c-0.6,0-1-0.4-1-1s0.4-1,1-1c0.6,0,1,0.4,1,1C16.7,14.4,16.3,14.9,15.7,14.9z"/>
	<path class="st0" d="M19.6,4.3H7.3L6,0.3C6,0.1,5.8,0,5.6,0H2.5C2.3,0,2,0.2,2,0.5S2.3,1,2.5,1h2.7l2.7,8.9
		c0.1,0.2,0.2,0.3,0.5,0.3h9.5c0.2,0,0.5-0.2,0.5-0.5s-0.2-0.5-0.5-0.5H8.8L8.4,7.9H19c0.2,0,0.5-0.2,0.5-0.5c0-0.2-0.2-0.5-0.5-0.5
		H8.1L7.6,5.4h11.9c0.2,0,0.5-0.2,0.5-0.5C20,4.7,19.8,4.3,19.6,4.3z"/>
</g>
</svg>
