<?xml version="1.0" encoding="utf-8"?>
<!-- Generator: Adobe Illustrator 23.0.0, SVG Export Plug-In . SVG Version: 6.00 Build 0)  -->
<svg version="1.1" id="圖層_1" xmlns="http://www.w3.org/2000/svg" xmlns:xlink="http://www.w3.org/1999/xlink" x="0px" y="0px"
	 viewBox="0 0 68 18" style="enable-background:new 0 0 68 18;" xml:space="preserve">
<style type="text/css">
	.st0{fill:#FFD050;}
	.st1{fill:#FFFFFF;}
	.st2{fill:#DB0044;}
</style>
<g>
	<path class="st0" d="M31.2,0c-3,1.2-5.6,2.9-7.8,4.9c-0.6-1.7-1.8-2.9-3-4.4c-1.7,0.9-2.5,3.5-4.4,4.5c-1.5-1.3-2-3.5-3.7-4.6
		c-1.7,2-3.9,5.2-3.9,5.2C4.9,2.8,1.7,1.1,0.8,0.7c5.6,7.6,5.7,8.6,7,17.3h18C25.3,11.8,27.4,5.6,31.2,0z"/>
</g>
<g>
	<path class="st1" d="M14.1,9.1c0.3,0,0.4,0.1,0.4,0.4c0,0.3-0.1,0.4-0.4,0.4h-0.7v2c0.2-0.1,0.4-0.2,0.6-0.3l0.2-0.1
		c0.3,0,0.4,0.1,0.4,0.4c0,0.1,0,0.2-0.1,0.2c-0.2,0.2-0.6,0.4-1,0.6v2.8c0,0.6-0.4,0.9-1.1,0.9c-0.1,0-0.3,0-0.6-0.1
		c-0.2-0.1-0.3-0.2-0.3-0.4c0-0.2,0.1-0.4,0.4-0.4c0,0,0,0,0.1,0c0.2,0.1,0.4,0.1,0.4,0.1c0.2,0,0.3-0.1,0.3-0.3v-2.3
		c-0.2,0.1-0.5,0.2-0.7,0.2c-0.1,0-0.1,0-0.2,0c-0.3,0-0.4-0.1-0.4-0.4c0-0.2,0.1-0.3,0.3-0.4c0.4-0.1,0.7-0.2,1-0.3V9.9h-0.8
		c-0.3,0-0.4-0.1-0.4-0.4c0-0.3,0.1-0.4,0.4-0.4h0.8V7.9c0-0.3,0.1-0.4,0.4-0.4s0.4,0.1,0.4,0.4v1.2H14.1z M16,7.5
		c0.3,0,0.4,0.1,0.4,0.3c0,0.1,0,0.1,0,0.2c-0.1,0.4-0.2,0.7-0.4,1h1.6c0.1-0.1,0.1-0.2,0.2-0.3c0.2-0.3,0.3-0.7,0.5-1
		c0.1-0.1,0.2-0.2,0.4-0.2c0.1,0,0.2,0,0.3,0.1C19,7.8,19.1,7.9,19.1,8c0,0.1,0,0.2-0.1,0.3c-0.1,0.2-0.2,0.5-0.4,0.7
		c0,0,0,0.1,0,0.1h1.6c0.2,0,0.4,0.1,0.4,0.4c0,0.2-0.1,0.4-0.4,0.4h-1.8v1.4H20c0.2,0,0.4,0.1,0.4,0.4c0,0.2-0.1,0.4-0.4,0.4h-1.7
		v1.3H20c0.2,0,0.4,0.1,0.4,0.4c0,0.2-0.1,0.4-0.4,0.4h-1.7v1.5h1.9c0.2,0,0.4,0.1,0.4,0.4c0,0.3-0.1,0.4-0.4,0.4h-4.5
		c-0.5,0-0.8-0.3-0.8-0.8v-4.8c-0.1,0.2-0.3,0.3-0.4,0.5c-0.1,0.1-0.2,0.1-0.3,0.1c-0.3,0-0.4-0.1-0.4-0.4c0-0.1,0-0.1,0.1-0.2
		c0.4-0.4,0.7-0.8,0.9-1.2c0.3-0.5,0.5-1,0.7-1.7C15.7,7.6,15.8,7.5,16,7.5z M17.6,11.1V9.8h-1.8v1.4H17.6z M17.6,13.2v-1.3h-1.8
		v1.3H17.6z M17.6,15.4v-1.5h-1.8v1.2c0,0.2,0.1,0.3,0.3,0.3H17.6z"/>
</g>
<g>
	<path class="st2" d="M35.7,9.2c0,0.3-0.2,0.5-0.6,0.5h-2.2v6.2c0,0.4-0.2,0.6-0.5,0.6s-0.5-0.2-0.5-0.6V9.7h-2.2
		c-0.4,0-0.6-0.2-0.6-0.5s0.2-0.5,0.6-0.5h5.4C35.5,8.7,35.7,8.9,35.7,9.2z"/>
	<path class="st2" d="M43.3,12.5c0,1.2-0.3,2.1-0.9,2.8c-0.6,0.8-1.5,1.1-2.6,1.1c-1.1,0-2-0.4-2.7-1.1c-0.6-0.7-0.9-1.6-0.9-2.8
		c0-1.2,0.3-2.1,0.9-2.8c0.6-0.8,1.5-1.1,2.7-1.1c1.1,0,2,0.4,2.7,1.1C43,10.4,43.3,11.4,43.3,12.5z M42.2,12.5
		c0-0.9-0.2-1.5-0.6-2.1c-0.5-0.6-1.1-0.9-1.9-0.9c-0.8,0-1.4,0.3-1.9,0.9c-0.4,0.5-0.6,1.2-0.6,2.1c0,0.8,0.2,1.5,0.6,2.1
		c0.4,0.6,1.1,0.9,1.9,0.9c0.8,0,1.4-0.3,1.9-0.9C42,14.1,42.2,13.4,42.2,12.5z"/>
	<path class="st2" d="M50,10.8c0,0.6-0.2,1.2-0.6,1.7c-0.4,0.5-0.9,0.7-1.6,0.7h-2.6v2.8c0,0.4-0.2,0.6-0.5,0.6
		c-0.4,0-0.5-0.2-0.5-0.6V9.3c0-0.4,0.2-0.6,0.5-0.6h3.3c0.6,0,1,0.2,1.4,0.6C49.8,9.7,50,10.2,50,10.8z M49,10.8
		c0-0.3-0.1-0.5-0.3-0.7c-0.2-0.2-0.5-0.4-0.7-0.4h-2.6c-0.1,0-0.1,0-0.1,0.1v2.3h2.4c0.3,0,0.6-0.1,0.9-0.4
		C48.8,11.5,49,11.2,49,10.8z"/>
	<path class="st2" d="M52.6,15.6c0,0.2-0.1,0.4-0.3,0.6c-0.2,0.2-0.4,0.3-0.6,0.3c-0.3,0-0.5-0.1-0.6-0.3c-0.2-0.2-0.2-0.4-0.2-0.6
		c0-0.3,0.1-0.5,0.2-0.6c0.2-0.2,0.4-0.3,0.6-0.3c0.2,0,0.4,0.1,0.6,0.3S52.6,15.3,52.6,15.6z"/>
	<path class="st2" d="M58.9,12.5c0,2.6-0.8,3.9-2.5,3.9s-2.5-1.3-2.5-3.9c0-2.6,0.8-3.9,2.5-3.9S58.9,9.9,58.9,12.5z M57.9,12.5
		c0-2-0.5-3-1.5-3c-1,0-1.5,1-1.5,3c0,2,0.5,3,1.5,3C57.4,15.5,57.9,14.5,57.9,12.5z"/>
	<path class="st2" d="M65.6,14.2c0,0.7-0.3,1.3-0.9,1.7c-0.5,0.4-1.2,0.6-1.9,0.6c-0.7,0-1.2-0.2-1.7-0.5c-0.6-0.4-0.8-0.9-0.8-1.5
		c0-0.4,0.2-0.6,0.5-0.6c0.2,0,0.3,0.2,0.4,0.5c0.2,0.8,0.8,1.1,1.7,1.1c0.4,0,0.8-0.1,1.2-0.3c0.4-0.3,0.6-0.6,0.6-1
		c0-0.5-0.2-0.9-0.5-1.1c-0.3-0.2-0.9-0.4-1.8-0.4c-0.4,0-0.6-0.2-0.6-0.5c0-0.3,0.2-0.4,0.6-0.5c0.6,0,1.1-0.1,1.4-0.2
		c0.5-0.2,0.8-0.5,0.8-1c0-0.4-0.2-0.6-0.6-0.8c-0.3-0.1-0.7-0.2-1.1-0.2c-0.7,0-1.2,0.3-1.4,1c-0.1,0.3-0.2,0.4-0.4,0.4
		c-0.3,0-0.5-0.2-0.5-0.5c0-0.6,0.3-1,0.8-1.4c0.5-0.3,1-0.5,1.5-0.5c0.7,0,1.3,0.2,1.8,0.5c0.6,0.4,0.9,0.9,0.9,1.6
		c0,0.7-0.4,1.3-1.3,1.6C65.1,12.6,65.6,13.2,65.6,14.2z"/>
</g>
</svg>
