<?xml version="1.0" encoding="utf-8"?>
<!-- Generator: Adobe Illustrator 23.0.0, SVG Export Plug-In . SVG Version: 6.00 Build 0)  -->
<svg version="1.1" id="圖層_1" xmlns="http://www.w3.org/2000/svg" xmlns:xlink="http://www.w3.org/1999/xlink" x="0px" y="0px"
	 viewBox="0 0 15 15" style="enable-background:new 0 0 15 15;" xml:space="preserve">
<style type="text/css">
	.st0{fill:#FFFFFF;}
</style>
<path class="st0" d="M7.5,0c2.1,0,3.9,0.8,5.3,2.2C14.2,3.6,15,5.4,15,7.5s-0.8,3.9-2.2,5.3C11.4,14.2,9.6,15,7.5,15
	c-2.1,0-3.9-0.8-5.3-2.2C0.8,11.4,0,9.6,0,7.5s0.8-3.9,2.2-5.3C3.6,0.8,5.4,0,7.5,0L7.5,0z M7.2,13.8L7.2,13.8v-2.4
	c-0.7,0-1.3,0.2-1.9,0.4c-0.1,0-0.2,0.1-0.3,0.1C5,12,5.1,12.1,5.1,12.2c0.4,0.7,0.8,1.2,1.3,1.5C6.7,13.8,6.9,13.8,7.2,13.8
	L7.2,13.8z M12,3L12,3c0-0.1-0.1-0.1-0.2-0.2c-0.3,0.2-0.6,0.4-0.9,0.6c0.4,1.1,0.7,2.4,0.7,3.7h2.2C13.7,5.5,13.1,4.1,12,3L12,3z
	 M11.3,2.4L11.3,2.4c-0.4-0.3-0.8-0.5-1.3-0.7c0.2,0.2,0.3,0.5,0.5,0.8c0.1,0.1,0.1,0.2,0.2,0.4C10.9,2.7,11.1,2.5,11.3,2.4
	L11.3,2.4z M8.5,1.2L8.5,1.2c-0.2,0-0.5-0.1-0.7-0.1v2.4c0.7,0,1.3-0.2,1.9-0.4c0.1,0,0.2-0.1,0.3-0.1C10,3,9.9,2.9,9.9,2.8
	C9.5,2.1,9.1,1.6,8.5,1.2L8.5,1.2z M7.2,1.2L7.2,1.2c-0.2,0-0.5,0-0.7,0.1c-0.5,0.3-1,0.8-1.3,1.5C5.1,2.9,5,3,4.9,3.1
	c0.1,0,0.2,0.1,0.3,0.1c0.6,0.2,1.3,0.4,1.9,0.4V1.2L7.2,1.2z M5,1.7L5,1.7C4.5,1.9,4.1,2.1,3.7,2.4c0.2,0.1,0.4,0.3,0.6,0.4
	c0.1-0.1,0.1-0.2,0.2-0.4C4.7,2.2,4.8,1.9,5,1.7L5,1.7z M3.2,2.9L3.2,2.9C3.1,2.9,3.1,3,3,3C1.9,4.1,1.3,5.5,1.2,7.2h2.2
	c0-1.4,0.3-2.7,0.7-3.7C3.7,3.3,3.4,3.1,3.2,2.9L3.2,2.9z M1.2,7.9L1.2,7.9C1.3,9.5,1.9,10.9,3,12l0.2,0.2c0.3-0.2,0.6-0.4,0.9-0.6
	c-0.4-1.1-0.7-2.4-0.7-3.7H1.2L1.2,7.9z M3.7,12.6L3.7,12.6c0.4,0.3,0.8,0.5,1.3,0.7c-0.2-0.2-0.4-0.5-0.5-0.8
	c-0.1-0.1-0.1-0.2-0.2-0.3C4.1,12.3,3.9,12.5,3.7,12.6L3.7,12.6z M7.8,13.8L7.8,13.8c0.2,0,0.5,0,0.7-0.1c0.5-0.3,1-0.8,1.3-1.5
	c0.1-0.1,0.1-0.2,0.2-0.3c-0.1,0-0.2-0.1-0.3-0.1c-0.6-0.2-1.3-0.4-1.9-0.4V13.8L7.8,13.8z M10,13.3L10,13.3
	c0.5-0.2,0.9-0.4,1.3-0.7c-0.2-0.1-0.4-0.3-0.6-0.4c-0.1,0.1-0.1,0.2-0.2,0.3C10.3,12.8,10.2,13.1,10,13.3L10,13.3z M11.8,12.1
	L11.8,12.1L12,12c1.1-1.1,1.8-2.5,1.9-4.1h-2.2c0,1.4-0.3,2.7-0.7,3.7C11.3,11.7,11.6,11.9,11.8,12.1L11.8,12.1z M10.3,3.7L10.3,3.7
	c-0.1,0-0.2,0.1-0.3,0.1C9.3,4.1,8.6,4.3,7.8,4.3v2.9H11C10.9,5.9,10.7,4.7,10.3,3.7L10.3,3.7z M7.2,4.3L7.2,4.3
	C6.4,4.3,5.6,4.1,5,3.8c-0.1,0-0.2-0.1-0.3-0.1C4.3,4.7,4.1,5.9,4,7.2h3.1V4.3L7.2,4.3z M7.2,10.7L7.2,10.7V7.9H4
	c0,1.3,0.3,2.4,0.6,3.4c0.1,0,0.2-0.1,0.3-0.1C5.6,10.9,6.4,10.8,7.2,10.7L7.2,10.7z M7.8,10.7L7.8,10.7c0.8,0,1.5,0.2,2.2,0.5
	c0.1,0,0.2,0.1,0.3,0.1c0.4-1,0.6-2.2,0.6-3.4H7.8V10.7L7.8,10.7z"/>
</svg>
