<?xml version="1.0" encoding="utf-8"?>
<!-- Generator: Adobe Illustrator 23.0.0, SVG Export Plug-In . SVG Version: 6.00 Build 0)  -->
<svg version="1.1" id="圖層_1" xmlns="http://www.w3.org/2000/svg" xmlns:xlink="http://www.w3.org/1999/xlink" x="0px" y="0px"
	 viewBox="0 0 20 20" style="enable-background:new 0 0 20 20;" xml:space="preserve">
<style type="text/css">
	.st0{fill:#FFFFFF;}
</style>
<path class="st0" d="M4.6,0.7c1,1.3,2,2.5,2.9,3.8c0,0,0,0,0,0C7.7,4.8,7.8,5,7.9,5.2c0.1,0.2,0.1,0.5,0,0.7c0,0.3-0.1,0.5-0.3,0.7
	c0,0,0,0,0,0C7.5,6.9,7.4,7,7.2,7.2c0,0,0,0,0,0c-0.5,0.3-1,0.7-1.4,1C5.6,8.5,5.5,8.9,5.9,9.5C6.5,10.4,7.2,11.2,8,12h0
	c0.8,0.8,1.6,1.5,2.5,2.1c0.6,0.4,1,0.3,1.2,0.2c0.4-0.5,0.7-1,1.1-1.5l0,0c0.2-0.2,0.3-0.4,0.5-0.5c0.2-0.1,0.4-0.2,0.7-0.2
	c0,0,0,0,0,0c0.3,0,0.5,0,0.7,0c0,0,0,0,0,0c0.2,0.1,0.4,0.2,0.6,0.3c1.3,1,2.5,2,3.8,2.9c0,0,0,0,0.1,0.1c0.2,0.2,0.3,0.3,0.5,0.6
	c0.1,0.2,0.2,0.5,0.2,0.8c0,0.3,0,0.5-0.1,0.8c-0.1,0.2-0.3,0.5-0.5,0.7c-0.2,0.2-0.5,0.5-0.9,0.7c0,0,0,0,0,0
	c-0.3,0.2-0.8,0.4-1.2,0.6c-2.1,0.7-4.3,0.6-6.4-0.1c-2.3-0.8-4.4-2.2-6.2-3.9c-1.8-1.8-3.2-4-3.9-6.2c-0.7-2.1-0.8-4.4-0.1-6.5
	C0.6,2.3,0.8,1.9,1,1.5c0,0,0,0,0,0l0,0c0.2-0.4,0.4-0.7,0.7-0.9c0.2-0.2,0.4-0.4,0.7-0.5c0,0,0,0,0.1,0C2.7,0,2.9,0,3.2,0
	C3.9,0,4.1,0.2,4.6,0.7L4.6,0.7z M6.3,5.5L6.3,5.5c-1-1.3-2-2.5-2.9-3.8v0c0,0-0.1-0.1-0.1-0.1c0,0,0,0,0,0c0,0-0.1,0-0.1,0
	c0,0-0.1,0-0.1,0c0,0,0,0,0,0c0,0-0.1,0.1-0.1,0.1C2.7,1.8,2.5,2,2.4,2.3l0,0C2.2,2.6,2,2.9,1.9,3.3C1.3,5,1.4,6.9,2.1,8.8
	c0.7,2,2,4,3.6,5.6c1.6,1.6,3.6,2.9,5.6,3.6c1.8,0.6,3.7,0.7,5.5,0.1c0.4-0.1,0.7-0.3,0.9-0.4c0,0,0,0,0,0c0.3-0.2,0.5-0.3,0.7-0.5
	c0,0,0.1-0.1,0.1-0.1c0,0,0,0,0,0c0,0,0-0.1,0-0.2c0,0,0-0.1,0-0.1c0,0,0,0,0,0c0,0,0-0.1-0.1-0.1c0,0,0,0,0,0c-1.3-1-2.5-2-3.8-3h0
	h0c0,0-0.1,0-0.1,0c0,0,0,0,0,0c0,0-0.1,0-0.1,0l0,0c-0.1,0-0.1,0-0.1,0.1l0,0c0,0-0.1,0-0.1,0.1l0,0c-0.4,0.5-0.8,1.1-1.2,1.6
	c-0.1,0.1-0.1,0.2-0.3,0.2c0,0-1.4,1-3-0.2c-1-0.7-1.9-1.5-2.7-2.3l0,0c-0.8-0.8-1.6-1.7-2.3-2.7c-1.2-1.7-0.2-3-0.2-3
	c0.1-0.1,0.1-0.2,0.2-0.2c0.5-0.4,1-0.8,1.6-1.1c0,0,0,0,0.1,0c0,0,0.1,0,0.1-0.1c0,0,0,0,0,0c0,0,0-0.1,0-0.1c0,0,0-0.1,0-0.1
	C6.4,5.5,6.4,5.5,6.3,5.5C6.3,5.5,6.3,5.5,6.3,5.5L6.3,5.5z"/>
</svg>
